<svg width="30" height="30" viewBox="0 0 30 30" fill="none" xmlns="http://www.w3.org/2000/svg">
<path opacity="0.4" d="M15 30C23.2845 30 30 23.2845 30 15C30 6.7155 23.2845 0 15 0C6.7155 0 0 6.7155 0 15C0 23.2845 6.7155 30 15 30Z" fill="#06FF00"/>
<path d="M14.9996 7.39346C11.8946 7.39346 9.37462 9.91346 9.37462 13.0185C9.37462 16.0635 11.7596 18.5385 14.9246 18.6285H15.1946C16.6507 18.5806 18.0311 17.9686 19.0444 16.9218C20.0576 15.875 20.6242 14.4753 20.6246 13.0185C20.6246 9.91346 18.1046 7.39346 14.9996 7.39346ZM25.1681 26.019C22.3998 28.5777 18.7678 29.9973 14.9981 29.994C11.0681 29.994 7.49812 28.479 4.82812 26.019C5.18812 24.654 6.16313 23.409 7.58812 22.449C11.6831 19.719 18.3431 19.719 22.4081 22.449C23.8481 23.409 24.8081 24.654 25.1681 26.019Z" fill="#002E66"/>
</svg>
