<svg width="130" height="37" viewBox="0 0 130 37" fill="none" xmlns="http://www.w3.org/2000/svg">
<path d="M128.332 32.7329C128.332 34.7047 126.701 36.3019 124.684 36.3019H5.32959C3.31386 36.3019 1.67767 34.7047 1.67767 32.7329V4.27173C1.67767 2.30089 3.31386 0.69812 5.32959 0.69812H124.683C126.701 0.69812 128.331 2.30089 128.331 4.27173L128.332 32.7329Z" fill="black"/>
<path d="M124.299 0.74116C126.496 0.74116 128.283 2.48363 128.283 4.625V32.375C128.283 34.5164 126.496 36.2588 124.299 36.2588H5.70971C3.51343 36.2588 1.72629 34.5164 1.72629 32.375V4.625C1.72629 2.48363 3.51343 0.74116 5.70971 0.74116H124.299ZM124.299 4.31751e-06H5.70971C3.10193 4.31751e-06 0.966125 2.08241 0.966125 4.625V32.375C0.966125 34.9176 3.10193 37 5.70971 37H124.299C126.907 37 129.043 34.9176 129.043 32.375V4.625C129.043 2.08241 126.907 4.31751e-06 124.299 4.31751e-06Z" fill="#A6A6A6"/>
<path d="M29.5491 18.3002C29.5216 15.3189 32.0528 13.8685 32.1685 13.801C30.735 11.7632 28.5131 11.4848 27.7323 11.4626C25.8662 11.2711 24.056 12.5513 23.1054 12.5513C22.1358 12.5513 20.672 11.4811 19.0942 11.5126C17.064 11.5431 15.1647 12.6892 14.123 14.4689C11.9732 18.0976 13.5765 23.4303 15.6362 26.3634C16.6665 27.8 17.8704 29.4039 19.4462 29.3475C20.9879 29.2855 21.5638 28.3892 23.4242 28.3892C25.2676 28.3892 25.8083 29.3475 27.4154 29.3114C29.07 29.2855 30.1117 27.8684 31.106 26.4189C32.2966 24.7724 32.7748 23.1509 32.7937 23.0677C32.7548 23.0547 29.5804 21.8735 29.5491 18.3002Z" fill="white"/>
<path d="M26.5132 9.53306C27.3424 8.52203 27.9097 7.14656 27.7522 5.75073C26.5521 5.80253 25.0512 6.56011 24.187 7.54893C23.4223 8.42028 22.7392 9.84848 22.9157 11.1916C24.2638 11.2896 25.648 10.5284 26.5132 9.53306Z" fill="white"/>
<path d="M51.8601 29.1412H49.7055L48.5253 25.5254H44.4231L43.2988 29.1412H41.2012L45.2655 16.8313H47.7758L51.8601 29.1412ZM48.1696 24.0084L47.1023 20.794C46.9894 20.4656 46.7778 19.6923 46.4657 18.475H46.4277C46.3034 18.9986 46.1033 19.7719 45.8281 20.794L44.7798 24.0084H48.1696Z" fill="white"/>
<path d="M62.3121 24.5939C62.3121 26.1035 61.8937 27.2968 61.0569 28.1728C60.3074 28.9525 59.3767 29.342 58.2658 29.342C57.0666 29.342 56.2052 28.922 55.6805 28.0821H55.6426V32.758H53.6199V23.187C53.6199 22.238 53.5943 21.2639 53.545 20.2649H55.3238L55.4367 21.6719H55.4747C56.1492 20.6118 57.1729 20.0827 58.5466 20.0827C59.6206 20.0827 60.5171 20.4962 61.2343 21.3241C61.9535 22.1529 62.3121 23.2425 62.3121 24.5939ZM60.2515 24.6661C60.2515 23.8021 60.0522 23.0899 59.6519 22.5293C59.2145 21.9447 58.6273 21.6524 57.8911 21.6524C57.392 21.6524 56.9385 21.8152 56.5334 22.1362C56.1274 22.46 55.8617 22.8827 55.7375 23.4062C55.6749 23.6504 55.6435 23.8502 55.6435 24.0075V25.4875C55.6435 26.1331 55.8466 26.678 56.2526 27.1229C56.6587 27.5678 57.1862 27.7898 57.8351 27.7898C58.5969 27.7898 59.1899 27.5031 59.6139 26.9314C60.039 26.3588 60.2515 25.604 60.2515 24.6661Z" fill="white"/>
<path d="M72.7831 24.5939C72.7831 26.1035 72.3647 27.2968 71.527 28.1728C70.7785 28.9525 69.8478 29.342 68.7368 29.342C67.5377 29.342 66.6762 28.922 66.1525 28.0821H66.1146V32.758H64.0919V23.187C64.0919 22.238 64.0663 21.2639 64.017 20.2649H65.7958L65.9087 21.6719H65.9467C66.6202 20.6118 67.6439 20.0827 69.0186 20.0827C70.0916 20.0827 70.9882 20.4962 71.7073 21.3241C72.4236 22.1529 72.7831 23.2425 72.7831 24.5939ZM70.7225 24.6661C70.7225 23.8021 70.5223 23.0899 70.122 22.5293C69.6846 21.9447 69.0993 21.6524 68.3621 21.6524C67.8621 21.6524 67.4096 21.8152 67.0035 22.1362C66.5975 22.46 66.3328 22.8827 66.2085 23.4062C66.1468 23.6504 66.1146 23.8502 66.1146 24.0075V25.4875C66.1146 26.1331 66.3176 26.678 66.7218 27.1229C67.1278 27.5669 67.6553 27.7898 68.3061 27.7898C69.0679 27.7898 69.6609 27.5031 70.085 26.9314C70.51 26.3588 70.7225 25.604 70.7225 24.6661Z" fill="white"/>
<path d="M84.4903 25.6891C84.4903 26.7362 84.1174 27.5881 83.3689 28.2458C82.5463 28.9645 81.4012 29.3234 79.9298 29.3234C78.5712 29.3234 77.4821 29.0681 76.6577 28.5566L77.1263 26.9129C78.0143 27.4364 78.9887 27.6991 80.0503 27.6991C80.8121 27.6991 81.405 27.5308 81.831 27.1959C82.2551 26.8611 82.4667 26.4115 82.4667 25.851C82.4667 25.3515 82.2921 24.9306 81.942 24.5893C81.5938 24.248 81.0123 23.9307 80.2002 23.6375C77.9897 22.8336 76.8854 21.6561 76.8854 20.1077C76.8854 19.0957 77.2724 18.266 78.0475 17.6203C78.8198 16.9738 79.8501 16.6509 81.1384 16.6509C82.2873 16.6509 83.2418 16.8461 84.0036 17.2355L83.4979 18.8432C82.7864 18.4658 81.9819 18.2771 81.0815 18.2771C80.37 18.2771 79.814 18.4482 79.4156 18.7886C79.0788 19.0929 78.9099 19.4639 78.9099 19.9032C78.9099 20.3898 79.1025 20.7922 79.4896 21.1085C79.8264 21.4008 80.4383 21.7172 81.3263 22.0585C82.4126 22.4849 83.2105 22.9835 83.7237 23.5551C84.2351 24.1249 84.4903 24.8381 84.4903 25.6891Z" fill="white"/>
<path d="M91.1778 21.7449H88.9483V26.0545C88.9483 27.1506 89.3411 27.6982 90.1285 27.6982C90.49 27.6982 90.7898 27.6677 91.0269 27.6066L91.0829 29.1042C90.6845 29.2494 90.1598 29.3225 89.5099 29.3225C88.7111 29.3225 88.0869 29.0848 87.6362 28.6102C87.1875 28.1348 86.9617 27.3374 86.9617 26.2173V21.743H85.6335V20.263H86.9617V18.6378L88.9483 18.0532V20.263H91.1778V21.7449Z" fill="white"/>
<path d="M101.237 24.63C101.237 25.9944 100.837 27.1145 100.038 27.9905C99.2001 28.8924 98.0882 29.3419 96.7021 29.3419C95.3663 29.3419 94.3028 28.91 93.5097 28.046C92.7166 27.1821 92.32 26.0915 92.32 24.7771C92.32 23.4016 92.728 22.2749 93.5467 21.399C94.3635 20.5221 95.466 20.0836 96.852 20.0836C98.1878 20.0836 99.2627 20.5156 100.074 21.3805C100.85 22.2194 101.237 23.3026 101.237 24.63ZM99.1384 24.6938C99.1384 23.8752 98.9591 23.1731 98.5958 22.5876C98.1717 21.879 97.5655 21.5257 96.7799 21.5257C95.9669 21.5257 95.3493 21.88 94.9252 22.5876C94.5618 23.174 94.3825 23.8872 94.3825 24.7308C94.3825 25.5494 94.5618 26.2515 94.9252 26.8361C95.3625 27.5447 95.9735 27.898 96.7619 27.898C97.5342 27.898 98.1404 27.5373 98.5777 26.8176C98.9506 26.221 99.1384 25.5115 99.1384 24.6938Z" fill="white"/>
<path d="M107.812 21.9993C107.611 21.9632 107.398 21.9447 107.174 21.9447C106.463 21.9447 105.912 22.2065 105.525 22.731C105.188 23.1935 105.02 23.7781 105.02 24.4839V29.1412H102.998L103.017 23.0603C103.017 22.0372 102.991 21.1058 102.941 20.2659H104.703L104.777 21.9642H104.833C105.046 21.3805 105.383 20.9106 105.844 20.5582C106.295 20.2409 106.781 20.0827 107.306 20.0827C107.493 20.0827 107.662 20.0957 107.812 20.1188V21.9993Z" fill="white"/>
<path d="M116.858 24.2831C116.858 24.6365 116.834 24.9343 116.784 25.1776H110.716C110.739 26.0545 111.033 26.7251 111.596 27.1876C112.107 27.6011 112.769 27.8083 113.581 27.8083C114.479 27.8083 115.299 27.6686 116.036 27.3883L116.353 28.7573C115.492 29.1236 114.475 29.3059 113.301 29.3059C111.889 29.3059 110.781 28.9007 109.975 28.0913C109.17 27.282 108.767 26.1951 108.767 24.8316C108.767 23.4932 109.142 22.3785 109.892 21.4896C110.678 20.5406 111.739 20.066 113.075 20.066C114.387 20.066 115.381 20.5406 116.055 21.4896C116.589 22.2435 116.858 23.1759 116.858 24.2831ZM114.929 23.7716C114.942 23.187 114.81 22.6819 114.536 22.2555C114.186 21.707 113.648 21.4332 112.924 21.4332C112.263 21.4332 111.725 21.7005 111.314 22.237C110.978 22.6634 110.777 23.175 110.716 23.7707H114.929V23.7716Z" fill="white"/>
<path d="M47.5007 9.25836C47.5007 10.3471 47.1658 11.1666 46.497 11.717C45.8774 12.2248 44.997 12.4792 43.8567 12.4792C43.2912 12.4792 42.8074 12.4552 42.4023 12.4071V6.45838C42.9307 6.37513 43.5 6.33258 44.1147 6.33258C45.201 6.33258 46.0197 6.56291 46.5719 7.02356C47.1905 7.54433 47.5007 8.28896 47.5007 9.25836ZM46.4524 9.28518C46.4524 8.57941 46.2607 8.03828 45.8774 7.66088C45.4942 7.28441 44.9344 7.09571 44.1973 7.09571C43.8842 7.09571 43.6176 7.11606 43.3965 7.15861V11.6809C43.5189 11.6994 43.7428 11.7078 44.0682 11.7078C44.8291 11.7078 45.4164 11.5015 45.83 11.0889C46.2436 10.6764 46.4524 10.0751 46.4524 9.28518Z" fill="white"/>
<path d="M53.0593 10.2093C53.0593 10.8799 52.8629 11.4293 52.4701 11.8604C52.0584 12.3035 51.5128 12.5245 50.8317 12.5245C50.1751 12.5245 49.6524 12.3127 49.2625 11.8872C48.8735 11.4626 48.679 10.9271 48.679 10.2814C48.679 9.60617 48.8792 9.05209 49.2815 8.62197C49.6837 8.19184 50.2245 7.97632 50.9057 7.97632C51.5622 7.97632 52.0897 8.18814 52.4891 8.61272C52.8686 9.02527 53.0593 9.55807 53.0593 10.2093ZM52.028 10.2407C52.028 9.83834 51.9388 9.49332 51.7614 9.20564C51.5527 8.85784 51.2557 8.68394 50.8696 8.68394C50.4702 8.68394 50.1666 8.85784 49.9579 9.20564C49.7795 9.49332 49.6913 9.84389 49.6913 10.2583C49.6913 10.6607 49.7805 11.0057 49.9579 11.2934C50.1732 11.6412 50.473 11.8151 50.8601 11.8151C51.2396 11.8151 51.5375 11.6384 51.7519 11.2841C51.936 10.9909 52.028 10.6431 52.028 10.2407Z" fill="white"/>
<path d="M60.5124 8.06512L59.113 12.4256H58.2023L57.6226 10.5321C57.4755 10.0594 57.356 9.58952 57.263 9.12332H57.245C57.1587 9.60247 57.0391 10.0714 56.8854 10.5321L56.2697 12.4256H55.3485L54.0327 8.06512H55.0544L55.5601 10.1381C55.6825 10.6283 55.783 11.0954 55.8637 11.5376H55.8817C55.9557 11.1731 56.0781 10.7088 56.2508 10.1473L56.8854 8.06605H57.6957L58.3038 10.1029C58.4508 10.5996 58.5704 11.0779 58.6624 11.5385H58.6899C58.7573 11.0899 58.8588 10.6116 58.9935 10.1029L59.5362 8.06605H60.5124V8.06512Z" fill="white"/>
<path d="M65.6668 12.4256H64.6725V9.9281C64.6725 9.1585 64.3727 8.7737 63.7713 8.7737C63.4762 8.7737 63.2381 8.87915 63.0531 9.09097C62.87 9.3028 62.777 9.55255 62.777 9.83837V12.4247H61.7827V9.31112C61.7827 8.92817 61.7704 8.51285 61.7467 8.0633H62.6205L62.667 8.74502H62.6945C62.8102 8.5332 62.9829 8.35837 63.2096 8.2187C63.4791 8.0559 63.7807 7.97357 64.1109 7.97357C64.5283 7.97357 64.8756 8.10492 65.1516 8.36855C65.4951 8.69137 65.6668 9.1733 65.6668 9.8134V12.4256Z" fill="white"/>
<path d="M68.4086 12.4256H67.4153V6.06433H68.4086V12.4256Z" fill="white"/>
<path d="M74.2621 10.2093C74.2621 10.8799 74.0657 11.4293 73.673 11.8604C73.2612 12.3035 72.7148 12.5245 72.0345 12.5245C71.3771 12.5245 70.8543 12.3127 70.4654 11.8872C70.0764 11.4626 69.8819 10.9271 69.8819 10.2814C69.8819 9.60617 70.0821 9.05209 70.4843 8.62197C70.8866 8.19184 71.4274 7.97632 72.1076 7.97632C72.7651 7.97632 73.2916 8.18814 73.6919 8.61272C74.0714 9.02527 74.2621 9.55807 74.2621 10.2093ZM73.2299 10.2407C73.2299 9.83834 73.1407 9.49332 72.9633 9.20564C72.7556 8.85784 72.4577 8.68394 72.0725 8.68394C71.6721 8.68394 71.3685 8.85784 71.1608 9.20564C70.9824 9.49332 70.8942 9.84389 70.8942 10.2583C70.8942 10.6607 70.9834 11.0057 71.1608 11.2934C71.3761 11.6412 71.6759 11.8151 72.063 11.8151C72.4425 11.8151 72.7394 11.6384 72.9538 11.2841C73.1388 10.9909 73.2299 10.6431 73.2299 10.2407Z" fill="white"/>
<path d="M79.074 12.4256H78.1813L78.1073 11.9233H78.0797C77.7743 12.3238 77.3388 12.5245 76.7734 12.5245C76.3512 12.5245 76.0096 12.3923 75.7525 12.1296C75.5192 11.8909 75.4025 11.594 75.4025 11.2416C75.4025 10.7088 75.6302 10.3027 76.0884 10.0215C76.5457 9.74029 77.1889 9.60247 78.0171 9.60894V9.52754C78.0171 8.95312 77.7078 8.66637 77.0883 8.66637C76.6472 8.66637 76.2582 8.77459 75.9224 8.98919L75.7203 8.35279C76.1358 8.10212 76.6491 7.97632 77.2544 7.97632C78.4232 7.97632 79.0095 8.57757 79.0095 9.78007V11.3859C79.0095 11.8215 79.0313 12.1684 79.074 12.4256ZM78.0418 10.9271V10.2546C76.9451 10.2361 76.3967 10.5293 76.3967 11.1333C76.3967 11.3609 76.4593 11.5311 76.5874 11.6449C76.7155 11.7586 76.8787 11.8151 77.0732 11.8151C77.2914 11.8151 77.4953 11.7475 77.6813 11.6134C77.8682 11.4784 77.983 11.3072 78.0257 11.0973C78.0361 11.0501 78.0418 10.9927 78.0418 10.9271Z" fill="white"/>
<path d="M84.7236 12.4256H83.8413L83.7948 11.7253H83.7673C83.4856 12.2581 83.0055 12.5245 82.331 12.5245C81.7921 12.5245 81.3434 12.3183 80.9876 11.9057C80.6318 11.4932 80.4544 10.9576 80.4544 10.2999C80.4544 9.59413 80.647 9.02248 81.0341 8.58588C81.4088 8.17888 81.868 7.97538 82.4145 7.97538C83.015 7.97538 83.4353 8.17241 83.6743 8.56738H83.6933V6.06433H84.6885V11.2508C84.6885 11.6754 84.6999 12.0667 84.7236 12.4256ZM83.6933 10.5867V9.85961C83.6933 9.73381 83.6838 9.63206 83.6658 9.55436C83.6098 9.32126 83.4893 9.12516 83.3062 8.96698C83.1212 8.80881 82.8983 8.72926 82.6412 8.72926C82.2702 8.72926 81.9799 8.87263 81.7665 9.16031C81.5549 9.44798 81.4477 9.81521 81.4477 10.2638C81.4477 10.6949 81.5492 11.0445 81.7532 11.3137C81.9686 11.6005 82.2589 11.7438 82.6222 11.7438C82.9486 11.7438 83.2095 11.6245 83.4078 11.3849C83.5994 11.1639 83.6933 10.8975 83.6933 10.5867Z" fill="white"/>
<path d="M93.227 10.2093C93.227 10.8799 93.0306 11.4293 92.6379 11.8604C92.2261 12.3035 91.6816 12.5245 90.9994 12.5245C90.3439 12.5245 89.8211 12.3127 89.4303 11.8872C89.0413 11.4626 88.8468 10.9271 88.8468 10.2814C88.8468 9.60617 89.047 9.05209 89.4492 8.62197C89.8515 8.19184 90.3923 7.97632 91.0744 7.97632C91.73 7.97632 92.2584 8.18814 92.6569 8.61272C93.0363 9.02527 93.227 9.55807 93.227 10.2093ZM92.1967 10.2407C92.1967 9.83834 92.1075 9.49332 91.9301 9.20564C91.7205 8.85784 91.4245 8.68394 91.0374 8.68394C90.6389 8.68394 90.3353 8.85784 90.1257 9.20564C89.9473 9.49332 89.8591 9.84389 89.8591 10.2583C89.8591 10.6607 89.9483 11.0057 90.1257 11.2934C90.341 11.6412 90.6408 11.8151 91.0279 11.8151C91.4074 11.8151 91.7062 11.6384 91.9206 11.2841C92.1038 10.9909 92.1967 10.6431 92.1967 10.2407Z" fill="white"/>
<path d="M98.5731 12.4256H97.5798V9.9281C97.5798 9.1585 97.28 8.7737 96.6775 8.7737C96.3825 8.7737 96.1444 8.87915 95.9603 9.09097C95.7763 9.3028 95.6842 9.55255 95.6842 9.83837V12.4247H94.689V9.31112C94.689 8.92817 94.6776 8.51285 94.6539 8.0633H95.5267L95.5732 8.74502H95.6008C95.7174 8.5332 95.8901 8.35837 96.1159 8.2187C96.3863 8.0559 96.687 7.97357 97.0181 7.97357C97.4346 7.97357 97.7818 8.10492 98.0579 8.36855C98.4023 8.69137 98.5731 9.1733 98.5731 9.8134V12.4256Z" fill="white"/>
<path d="M105.264 8.79126H104.17V10.9095C104.17 11.4479 104.364 11.717 104.749 11.717C104.928 11.717 105.076 11.7022 105.192 11.6717L105.218 12.4071C105.021 12.4792 104.763 12.5153 104.446 12.5153C104.053 12.5153 103.747 12.3988 103.526 12.1657C103.304 11.9326 103.194 11.5404 103.194 10.99V8.79126H102.541V8.06514H103.194V7.26594L104.169 6.97919V8.06421H105.263V8.79126H105.264Z" fill="white"/>
<path d="M110.528 12.4256H109.533V9.94656C109.533 9.16493 109.233 8.77366 108.632 8.77366C108.171 8.77366 107.856 9.00028 107.684 9.45353C107.654 9.54881 107.637 9.66536 107.637 9.80226V12.4246H106.644V6.06433H107.637V8.69226H107.656C107.969 8.21403 108.418 7.97538 108.999 7.97538C109.411 7.97538 109.752 8.10673 110.022 8.37036C110.359 8.69873 110.528 9.18713 110.528 9.83278V12.4256Z" fill="white"/>
<path d="M115.957 10.0391C115.957 10.213 115.944 10.3591 115.92 10.4785H112.939C112.952 10.9095 113.094 11.2379 113.37 11.4654C113.623 11.6689 113.948 11.7707 114.346 11.7707C114.788 11.7707 115.19 11.7022 115.552 11.5644L115.708 12.2378C115.284 12.4173 114.785 12.507 114.207 12.507C113.514 12.507 112.969 12.3081 112.574 11.9104C112.178 11.5126 111.981 10.9789 111.981 10.3092C111.981 9.65152 112.164 9.10392 112.533 8.66732C112.919 8.20112 113.439 7.96802 114.097 7.96802C114.74 7.96802 115.229 8.20112 115.559 8.66732C115.825 9.03732 115.957 9.49519 115.957 10.0391ZM115.009 9.78842C115.016 9.50074 114.951 9.25284 114.816 9.04379C114.643 8.77462 114.381 8.63957 114.025 8.63957C113.7 8.63957 113.436 8.77092 113.234 9.03454C113.068 9.24452 112.971 9.49519 112.939 9.78842H115.009Z" fill="white"/>
</svg>
