<svg width="32" height="32" viewBox="0 0 32 32" fill="none" xmlns="http://www.w3.org/2000/svg">
<rect width="32" height="32" rx="4" fill="#EBF3FF"/>
<path d="M20.41 7.99999C22.35 7.99999 23.91 9.56999 23.91 11.5C23.91 13.39 22.41 14.93 20.54 15C20.4536 14.99 20.3664 14.99 20.28 15M22.34 24C23.06 23.85 23.74 23.56 24.3 23.13C25.86 21.96 25.86 20.03 24.3 18.86C23.75 18.44 23.08 18.16 22.37 18M13.16 14.87C13.06 14.86 12.94 14.86 12.83 14.87C11.6822 14.831 10.5946 14.3468 9.7976 13.5199C9.00059 12.6931 8.55671 11.5884 8.55997 10.44C8.55997 7.98999 10.54 5.99999 13 5.99999C14.1762 5.97877 15.3127 6.42568 16.1594 7.2424C17.0061 8.05912 17.4938 9.17875 17.515 10.355C17.5362 11.5312 17.0893 12.6677 16.2726 13.5144C15.4558 14.3612 14.3362 14.8488 13.16 14.87ZM8.15997 18.56C5.73997 20.18 5.73997 22.82 8.15997 24.43C10.91 26.27 15.42 26.27 18.17 24.43C20.59 22.81 20.59 20.17 18.17 18.56C15.43 16.73 10.92 16.73 8.15997 18.56Z" stroke="#002E66" stroke-width="1.5" stroke-linecap="round" stroke-linejoin="round"/>
</svg>
