<svg width="32" height="32" viewBox="0 0 32 32" fill="none" xmlns="http://www.w3.org/2000/svg">
<rect width="32" height="32" rx="4" fill="#EDE9FA"/>
<path d="M16 26V23.6M16 17V15M16 6V8.69M21.4 23.25H10.6C9.1 23.25 8.5 22.61 8.5 21.02V19.98C8.5 18.39 9.1 17.75 10.6 17.75H21.4C22.9 17.75 23.5 18.39 23.5 19.98V21.02C23.5 22.61 22.9 23.25 21.4 23.25ZM19.4 14.75H12.6C11.1 14.75 10.5 14.11 10.5 12.52V11.48C10.5 9.89 11.1 9.25 12.6 9.25H19.4C20.9 9.25 21.5 9.89 21.5 11.48V12.52C21.5 14.11 20.9 14.75 19.4 14.75Z" stroke="#874CD1" stroke-width="1.5" stroke-linecap="round" stroke-linejoin="round"/>
</svg>
