<svg width="37" height="30" viewBox="0 0 37 30" fill="none" xmlns="http://www.w3.org/2000/svg">
<path opacity="0.4" d="M3.49365 28.847V4.58758C3.49365 1.53426 5.01272 0 8.03566 0H17.4994C20.5224 0 22.0262 1.53426 22.0262 4.58758V28.847" fill="#06FF00"/>
<path d="M16.6338 9.09616H9.1144C8.49158 9.09616 7.9751 8.57968 7.9751 7.95686C7.9751 7.33405 8.49158 6.81757 9.1144 6.81757H16.6338C17.2566 6.81757 17.7731 7.33405 17.7731 7.95686C17.7731 8.57968 17.2566 9.09616 16.6338 9.09616ZM16.6338 14.7927H9.1144C8.49158 14.7927 7.9751 14.2762 7.9751 13.6534C7.9751 13.0305 8.49158 12.5141 9.1144 12.5141H16.6338C17.2566 12.5141 17.7731 13.0305 17.7731 13.6534C17.7731 14.2762 17.2566 14.7927 16.6338 14.7927ZM12.8361 29.9833C12.2133 29.9833 11.6968 29.4668 11.6968 28.844V23.1475C11.6968 22.5247 12.2133 22.0082 12.8361 22.0082C13.4589 22.0082 13.9754 22.5247 13.9754 23.1475V28.844C13.9754 29.4668 13.4589 29.9833 12.8361 29.9833Z" fill="#002E66"/>
<path d="M35.2423 27.7062H31.794V23.149C33.2372 22.6781 34.2853 21.3262 34.2853 19.7311V16.693C34.2853 14.703 32.6599 13.0776 30.6699 13.0776C28.68 13.0776 27.0546 14.703 27.0546 16.693V19.7311C27.0546 21.311 28.0875 22.6477 29.5003 23.1338V27.7062H1.82289C1.20008 27.7062 0.683594 28.2227 0.683594 28.8455C0.683594 29.4683 1.20008 29.9848 1.82289 29.9848H30.5788C30.6092 29.9848 30.6244 30 30.6547 30C30.6851 30 30.7003 29.9848 30.7307 29.9848H35.2423C35.8651 29.9848 36.3816 29.4683 36.3816 28.8455C36.3816 28.2227 35.8651 27.7062 35.2423 27.7062Z" fill="#002E66"/>
</svg>
