<svg width="60" height="50" viewBox="0 0 60 50" fill="none" xmlns="http://www.w3.org/2000/svg">
<path d="M4.68359 48.0784V7.64596C4.68359 2.55709 7.21537 0 12.2536 0H28.0265C33.0648 0 35.5712 2.55709 35.5712 7.64596V48.0784" fill="#002E66"/>
<path d="M26.5835 15.1603H14.0512C13.0131 15.1603 12.1523 14.2995 12.1523 13.2614C12.1523 12.2234 13.0131 11.3626 14.0512 11.3626H26.5835C27.6215 11.3626 28.4823 12.2234 28.4823 13.2614C28.4823 14.2995 27.6215 15.1603 26.5835 15.1603ZM26.5835 24.6544H14.0512C13.0131 24.6544 12.1523 23.7936 12.1523 22.7556C12.1523 21.7176 13.0131 20.8568 14.0512 20.8568H26.5835C27.6215 20.8568 28.4823 21.7176 28.4823 22.7556C28.4823 23.7936 27.6215 24.6544 26.5835 24.6544ZM20.254 49.9722C19.216 49.9722 18.3552 49.1114 18.3552 48.0733V38.5792C18.3552 37.5411 19.216 36.6803 20.254 36.6803C21.292 36.6803 22.1528 37.5411 22.1528 38.5792V48.0733C22.1528 49.1114 21.292 49.9722 20.254 49.9722Z" fill="#06FF00"/>
<path d="M57.5978 46.177H51.8507V38.5817C54.2559 37.7969 56.0028 35.5436 56.0028 32.8852V27.8217C56.0028 24.505 53.2938 21.7961 49.9772 21.7961C46.6606 21.7961 43.9516 24.505 43.9516 27.8217V32.8852C43.9516 35.5183 45.6732 37.7462 48.0277 38.5564V46.177H1.89883C0.860803 46.177 0 47.0378 0 48.0759C0 49.1139 0.860803 49.9747 1.89883 49.9747H49.8253C49.8759 49.9747 49.9013 50 49.9519 50C50.0025 50 50.0278 49.9747 50.0785 49.9747H57.5978C58.6359 49.9747 59.4967 49.1139 59.4967 48.0759C59.4967 47.0378 58.6359 46.177 57.5978 46.177Z" fill="#06FF00"/>
</svg>
