<svg width="15" height="20" viewBox="0 0 15 20" fill="none" xmlns="http://www.w3.org/2000/svg">
<path d="M13.62 10.33L12.4 9.11C12.2538 8.9809 12.1364 8.82248 12.0554 8.64502C11.9744 8.46756 11.9317 8.27505 11.93 8.08C11.91 7.63 12.09 7.18 12.42 6.85L13.62 5.65C14.66 4.61 15.05 3.61 14.72 2.82C14.4 2.04 13.41 1.61 11.95 1.61H1.5V0.75C1.5 0.34 1.16 0 0.75 0C0.34 0 0 0.34 0 0.75V19.25C0 19.66 0.34 20 0.75 20C1.16 20 1.5 19.66 1.5 19.25V14.37H11.95C13.39 14.37 14.36 13.93 14.69 13.14C15.02 12.35 14.64 11.36 13.62 10.33Z" fill="#C91000"/>
</svg>
