<svg width="128" height="37" viewBox="0 0 128 37" fill="none" xmlns="http://www.w3.org/2000/svg">
<path d="M123.164 37H4.73707C2.13287 37 0 34.9176 0 32.375V4.625C0 2.08241 2.13287 4.31751e-06 4.73707 4.31751e-06H123.164C125.768 4.31751e-06 127.901 2.08241 127.901 4.625V32.375C127.901 34.9176 125.768 37 123.164 37Z" fill="black"/>
<path d="M123.164 0.74116C125.357 0.74116 127.142 2.48363 127.142 4.625V32.375C127.142 34.5164 125.357 36.2588 123.164 36.2588H4.73707C2.54381 36.2588 0.759115 34.5164 0.759115 32.375V4.625C0.759115 2.48363 2.54381 0.74116 4.73707 0.74116H123.164ZM123.164 4.31751e-06H4.73707C2.13287 4.31751e-06 0 2.08241 0 4.625V32.375C0 34.9176 2.13287 37 4.73707 37H123.164C125.768 37 127.901 34.9176 127.901 32.375V4.625C127.901 2.08241 125.768 4.31751e-06 123.164 4.31751e-06Z" fill="#A6A6A6"/>
<path d="M44.9239 9.47544C44.9239 10.2478 44.6871 10.8664 44.2205 11.3278C43.684 11.8747 42.9853 12.1498 42.1291 12.1498C41.3107 12.1498 40.612 11.87 40.0388 11.3185C39.4644 10.7589 39.1779 10.0721 39.1779 9.24997C39.1779 8.42788 39.4644 7.74107 40.0388 7.18607C40.612 6.62991 41.3107 6.3501 42.1291 6.3501C42.5364 6.3501 42.9249 6.43219 43.2956 6.58482C43.665 6.7386 43.9658 6.94672 44.1838 7.20341L43.6887 7.69135C43.3086 7.25313 42.7911 7.03691 42.1291 7.03691C41.5322 7.03691 41.0147 7.24041 40.5753 7.65088C40.1407 8.0625 39.9228 8.59553 39.9228 9.24997C39.9228 9.90441 40.1407 10.4421 40.5753 10.8537C41.0147 11.2595 41.5322 11.4677 42.1291 11.4677C42.7626 11.4677 43.2956 11.2595 43.716 10.8491C43.9931 10.5773 44.1506 10.2027 44.192 9.72403H42.1291V9.05572H44.8813C44.9144 9.20025 44.9239 9.34016 44.9239 9.47544Z" fill="white" stroke="white" stroke-width="0.100339" stroke-miterlimit="10"/>
<path d="M49.2904 7.15833H46.7051V8.91583H49.0358V9.58414H46.7051V11.3416H49.2904V12.0227H45.9733V6.47729H49.2904V7.15833Z" fill="white" stroke="white" stroke-width="0.100339" stroke-miterlimit="10"/>
<path d="M52.3718 12.0227H51.6399V7.15833H50.0542V6.47729H53.9587V7.15833H52.3718V12.0227Z" fill="white" stroke="white" stroke-width="0.100339" stroke-miterlimit="10"/>
<path d="M56.7845 12.0227V6.47729H57.5152V12.0227H56.7845Z" fill="white" stroke="white" stroke-width="0.100339" stroke-miterlimit="10"/>
<path d="M60.7541 12.0227H60.0282V7.15833H58.4365V6.47729H62.3458V7.15833H60.7541V12.0227Z" fill="white" stroke="white" stroke-width="0.100339" stroke-miterlimit="10"/>
<path d="M69.738 11.3093C69.1778 11.87 68.4838 12.1498 67.656 12.1498C66.8235 12.1498 66.1295 11.87 65.5693 11.3093C65.0104 10.7496 64.7321 10.0628 64.7321 9.24997C64.7321 8.43713 65.0104 7.75032 65.5693 7.19069C66.1295 6.62991 66.8235 6.3501 67.656 6.3501C68.4791 6.3501 69.1731 6.62991 69.7332 7.19532C70.2969 7.75957 70.5752 8.44175 70.5752 9.24997C70.5752 10.0628 70.2969 10.7496 69.738 11.3093ZM66.1105 10.8444C66.5321 11.2595 67.0449 11.4677 67.656 11.4677C68.2624 11.4677 68.7799 11.2595 69.1967 10.8444C69.6172 10.4293 69.8303 9.89632 69.8303 9.24997C69.8303 8.60363 69.6172 8.0706 69.1967 7.6555C68.7799 7.24041 68.2624 7.03229 67.656 7.03229C67.0449 7.03229 66.5321 7.24041 66.1105 7.6555C65.6901 8.0706 65.477 8.60363 65.477 9.24997C65.477 9.89632 65.6901 10.4293 66.1105 10.8444Z" fill="white" stroke="white" stroke-width="0.100339" stroke-miterlimit="10"/>
<path d="M71.6019 12.0227V6.47729H72.4901L75.2518 10.7901H75.2838L75.2518 9.72404V6.47729H75.9825V12.0227H75.2199L72.3279 7.49711H72.2959L72.3279 8.56779V12.0227H71.6019Z" fill="white" stroke="white" stroke-width="0.100339" stroke-miterlimit="10"/>
<path d="M64.552 20.1211C62.3268 20.1211 60.5089 21.7745 60.5089 24.0558C60.5089 26.3186 62.3268 27.9894 64.552 27.9894C66.782 27.9894 68.5998 26.3186 68.5998 24.0558C68.5998 21.7745 66.782 20.1211 64.552 20.1211ZM64.552 26.44C63.331 26.44 62.2806 25.456 62.2806 24.0558C62.2806 22.6371 63.331 21.6705 64.552 21.6705C65.773 21.6705 66.8282 22.6371 66.8282 24.0558C66.8282 25.456 65.773 26.44 64.552 26.44ZM55.7304 20.1211C53.5004 20.1211 51.6873 21.7745 51.6873 24.0558C51.6873 26.3186 53.5004 27.9894 55.7304 27.9894C57.9592 27.9894 59.7735 26.3186 59.7735 24.0558C59.7735 21.7745 57.9592 20.1211 55.7304 20.1211ZM55.7304 26.44C54.5082 26.44 53.4542 25.456 53.4542 24.0558C53.4542 22.6371 54.5082 21.6705 55.7304 21.6705C56.9514 21.6705 58.0018 22.6371 58.0018 24.0558C58.0018 25.456 56.9514 26.44 55.7304 26.44ZM45.2331 21.3271V22.999H49.3223C49.2027 23.9333 48.883 24.6201 48.3927 25.0988C47.7958 25.6769 46.8662 26.3186 45.2331 26.3186C42.7165 26.3186 40.7459 24.3356 40.7459 21.8786C40.7459 19.4216 42.7165 17.4386 45.2331 17.4386C46.5938 17.4386 47.5838 17.9578 48.3145 18.6307L49.5213 17.4525C48.4993 16.4997 47.1397 15.7678 45.2331 15.7678C41.7821 15.7678 38.8818 18.5093 38.8818 21.8786C38.8818 25.2479 41.7821 27.9894 45.2331 27.9894C47.0983 27.9894 48.4993 27.3928 49.6006 26.2735C50.7292 25.1716 51.081 23.6222 51.081 22.3712C51.081 21.9827 51.0478 21.6254 50.9886 21.3271H45.2331ZM88.158 22.6232C87.8252 21.7433 86.7985 20.1211 84.707 20.1211C82.6346 20.1211 80.9091 21.7156 80.9091 24.0558C80.9091 26.2596 82.6168 27.9894 84.906 27.9894C86.757 27.9894 87.8252 26.8875 88.2646 26.2458L86.8908 25.352C86.4325 26.0064 85.8084 26.44 84.906 26.44C84.0095 26.44 83.3664 26.0388 82.9543 25.2479L88.3439 23.0707L88.158 22.6232ZM82.663 23.9333C82.6168 22.4163 83.8698 21.6393 84.7674 21.6393C85.4709 21.6393 86.0678 21.9827 86.2667 22.4741L82.663 23.9333ZM78.2824 27.75H80.0541V16.1875H78.2824V27.75ZM75.3809 20.9975H75.3217C74.9238 20.5374 74.1647 20.1211 73.2031 20.1211C71.1851 20.1211 69.34 21.8509 69.34 24.0685C69.34 26.2735 71.1851 27.9894 73.2031 27.9894C74.1647 27.9894 74.9238 27.5697 75.3217 27.0956H75.3809V27.6599C75.3809 29.1641 74.5579 29.9724 73.2303 29.9724C72.1479 29.9724 71.4764 29.2092 71.1993 28.5675L69.6586 29.1954C70.1027 30.2383 71.2786 31.5217 73.2303 31.5217C75.3075 31.5217 77.0602 30.3285 77.0602 27.4251V20.3605H75.3809V20.9975ZM73.3547 26.44C72.1337 26.44 71.1117 25.4422 71.1117 24.0685C71.1117 22.6822 72.1337 21.6705 73.3547 21.6705C74.5579 21.6705 75.5065 22.6822 75.5065 24.0685C75.5065 25.4422 74.5579 26.44 73.3547 26.44ZM96.4526 16.1875H92.2153V27.75H93.9822V23.369H96.4526C98.4149 23.369 100.339 21.9827 100.339 19.7777C100.339 17.5739 98.4102 16.1875 96.4526 16.1875ZM96.4988 21.7607H93.9822V17.7959H96.4988C97.8181 17.7959 98.5713 18.8654 98.5713 19.7777C98.5713 20.6726 97.8181 21.7607 96.4988 21.7607ZM107.421 20.0991C106.145 20.0991 104.817 20.6495 104.271 21.8694L105.839 22.5111C106.177 21.8694 106.797 21.6612 107.453 21.6612C108.37 21.6612 109.3 22.1989 109.314 23.1482V23.2696C108.994 23.0892 108.309 22.8221 107.467 22.8221C105.779 22.8221 104.058 23.7298 104.058 25.4237C104.058 26.973 105.441 27.9709 106.996 27.9709C108.185 27.9709 108.841 27.4471 109.253 26.8378H109.314V27.7315H111.02V23.2962C111.02 21.2461 109.452 20.0991 107.421 20.0991ZM107.208 26.4354C106.63 26.4354 105.825 26.1556 105.825 25.456C105.825 24.5611 106.829 24.2177 107.698 24.2177C108.476 24.2177 108.841 24.3854 109.314 24.6062C109.175 25.6769 108.231 26.4354 107.208 26.4354ZM117.238 20.3524L115.207 25.3647H115.146L113.047 20.3524H111.141L114.296 27.3569L112.496 31.2546H114.342L119.204 20.3524H117.238ZM101.31 27.75H103.082V16.1875H101.31V27.75Z" fill="white"/>
<path d="M9.88626 6.97331C9.60796 7.25775 9.4469 7.70059 9.4469 8.27409V28.7305C9.4469 29.304 9.60796 29.7468 9.88626 30.0313L9.95495 30.0937L21.6958 18.6353V18.3647L9.95495 6.90625L9.88626 6.97331Z" fill="url(#paint0_linear_1564_2348)"/>
<path d="M25.6051 22.4567L21.6958 18.6353V18.3647L25.6098 14.5433L25.6974 14.593L30.3327 17.168C31.6555 17.8987 31.6555 19.1012 30.3327 19.8366L25.6974 22.4069L25.6051 22.4567Z" fill="url(#paint1_linear_1564_2348)"/>
<path d="M25.6974 22.407L21.6957 18.5L9.88623 30.0313C10.3256 30.4822 11.0421 30.5366 11.8569 30.0856L25.6974 22.407Z" fill="url(#paint2_linear_1564_2348)"/>
<path d="M25.6974 14.593L11.8569 6.91438C11.0421 6.46807 10.3256 6.52241 9.88623 6.97335L21.6957 18.5L25.6974 14.593Z" fill="url(#paint3_linear_1564_2348)"/>
<defs>
<linearGradient id="paint0_linear_1564_2348" x1="20.6533" y1="28.9435" x2="5.13406" y2="13.0482" gradientUnits="userSpaceOnUse">
<stop stop-color="#00A0FF"/>
<stop offset="0.0066" stop-color="#00A1FF"/>
<stop offset="0.2601" stop-color="#00BEFF"/>
<stop offset="0.5122" stop-color="#00D2FF"/>
<stop offset="0.7604" stop-color="#00DFFF"/>
<stop offset="1" stop-color="#00E3FF"/>
</linearGradient>
<linearGradient id="paint1_linear_1564_2348" x1="32.0552" y1="18.4987" x2="9.13073" y2="18.4987" gradientUnits="userSpaceOnUse">
<stop stop-color="#FFE000"/>
<stop offset="0.4087" stop-color="#FFBD00"/>
<stop offset="0.7754" stop-color="#FFA500"/>
<stop offset="1" stop-color="#FF9C00"/>
</linearGradient>
<linearGradient id="paint2_linear_1564_2348" x1="23.5214" y1="16.3761" x2="2.47602" y2="-5.17923" gradientUnits="userSpaceOnUse">
<stop stop-color="#FF3A44"/>
<stop offset="1" stop-color="#C31162"/>
</linearGradient>
<linearGradient id="paint3_linear_1564_2348" x1="6.91353" y1="36.837" x2="16.3112" y2="27.2117" gradientUnits="userSpaceOnUse">
<stop stop-color="#32A071"/>
<stop offset="0.0685" stop-color="#2DA771"/>
<stop offset="0.4762" stop-color="#15CF74"/>
<stop offset="0.8009" stop-color="#06E775"/>
<stop offset="1" stop-color="#00F076"/>
</linearGradient>
</defs>
</svg>
