<svg width="51" height="50" viewBox="0 0 51 50" fill="none" xmlns="http://www.w3.org/2000/svg">
<path d="M36.7502 0H13.4168C6.41683 0 4.0835 4.31326 4.0835 9.63856V48.1928H46.0835V9.63856C46.0835 4.31326 43.7502 0 36.7502 0Z" fill="#002E66"/>
<path d="M48.4167 46.3855H1.75C0.793333 46.3855 0 47.2048 0 48.1928C0 49.1807 0.793333 50 1.75 50H48.4167C49.3733 50 50.1667 49.1807 50.1667 48.1928C50.1667 47.2048 49.3733 46.3855 48.4167 46.3855Z" fill="#06FF00"/>
<path d="M20.417 36.747H13.417C12.4603 36.747 11.667 35.9277 11.667 34.9398C11.667 33.9518 12.4603 33.1325 13.417 33.1325H20.417C21.3737 33.1325 22.167 33.9518 22.167 34.9398C22.167 35.9277 21.3737 36.747 20.417 36.747ZM36.7503 36.747H29.7503C28.7937 36.747 28.0003 35.9277 28.0003 34.9398C28.0003 33.9518 28.7937 33.1325 29.7503 33.1325H36.7503C37.707 33.1325 38.5003 33.9518 38.5003 34.9398C38.5003 35.9277 37.707 36.747 36.7503 36.747ZM20.417 25.9036H13.417C12.4603 25.9036 11.667 25.0843 11.667 24.0964C11.667 23.1084 12.4603 22.2892 13.417 22.2892H20.417C21.3737 22.2892 22.167 23.1084 22.167 24.0964C22.167 25.0843 21.3737 25.9036 20.417 25.9036ZM36.7503 25.9036H29.7503C28.7937 25.9036 28.0003 25.0843 28.0003 24.0964C28.0003 23.1084 28.7937 22.2892 29.7503 22.2892H36.7503C37.707 22.2892 38.5003 23.1084 38.5003 24.0964C38.5003 25.0843 37.707 25.9036 36.7503 25.9036ZM20.417 15.0602H13.417C12.4603 15.0602 11.667 14.241 11.667 13.253C11.667 12.265 12.4603 11.4458 13.417 11.4458H20.417C21.3737 11.4458 22.167 12.265 22.167 13.253C22.167 14.241 21.3737 15.0602 20.417 15.0602ZM36.7503 15.0602H29.7503C28.7937 15.0602 28.0003 14.241 28.0003 13.253C28.0003 12.265 28.7937 11.4458 29.7503 11.4458H36.7503C37.707 11.4458 38.5003 12.265 38.5003 13.253C38.5003 14.241 37.707 15.0602 36.7503 15.0602Z" fill="#06FF00"/>
</svg>
