<svg width="130" height="90" viewBox="0 0 130 90" fill="none" xmlns="http://www.w3.org/2000/svg">
<path d="M43.7539 68C59.494 68 72.2539 55.2401 72.2539 39.5C72.2539 23.7599 59.494 11 43.7539 11C28.0138 11 15.2539 23.7599 15.2539 39.5C15.2539 55.2401 28.0138 68 43.7539 68Z" stroke="#DEDEDE" stroke-width="5" stroke-linecap="round" stroke-linejoin="round"/>
<path d="M3 86.9995C7.99346 81.0481 14.2298 76.2624 21.2707 72.979C28.3116 69.6956 35.9862 67.9941 43.755 67.9941C51.5238 67.9941 59.1984 69.6956 66.2393 72.979C73.2802 76.2624 79.5165 81.0481 84.51 86.9995" stroke="#DEDEDE" stroke-width="5" stroke-linecap="round" stroke-linejoin="round"/>
<circle cx="107.5" cy="22.5" r="22.5" fill="#E5DFF4"/>
<path d="M97 22.4004H119.8" stroke="#7544FF" stroke-width="3" stroke-linecap="round" stroke-linejoin="round"/>
<path d="M108.4 11V33.8" stroke="#7544FF" stroke-width="3" stroke-linecap="round" stroke-linejoin="round"/>
</svg>
