<svg width="177" height="132" viewBox="0 0 177 132" fill="none" xmlns="http://www.w3.org/2000/svg">
<path d="M12.375 49.5H119.625L66 16.5L12.375 49.5Z" stroke="#DEDEDE" stroke-width="5" stroke-linecap="round" stroke-linejoin="round"/>
<path d="M28.875 49.5V90.75" stroke="#DEDEDE" stroke-width="5" stroke-linecap="round" stroke-linejoin="round"/>
<path d="M53.625 49.5V90.75" stroke="#DEDEDE" stroke-width="5" stroke-linecap="round" stroke-linejoin="round"/>
<path d="M78.375 49.5V90.75" stroke="#DEDEDE" stroke-width="5" stroke-linecap="round" stroke-linejoin="round"/>
<path d="M103.124 49.5V90.75" stroke="#DEDEDE" stroke-width="5" stroke-linecap="round" stroke-linejoin="round"/>
<path d="M16.5 90.75H115.5" stroke="#DEDEDE" stroke-width="5" stroke-linecap="round" stroke-linejoin="round"/>
<path d="M8.25 107.25H123.75" stroke="#DEDEDE" stroke-width="5" stroke-linecap="round" stroke-linejoin="round"/>
<circle cx="154.499" cy="39.5" r="22.5" fill="#FCD7FF"/>
<path d="M154.999 45C159.97 45 163.999 40.9706 163.999 36C163.999 31.0294 159.97 27 154.999 27C150.028 27 145.999 31.0294 145.999 36C145.999 40.9706 150.028 45 154.999 45Z" stroke="#FF6CD3" stroke-width="3" stroke-linecap="round" stroke-linejoin="round"/>
<path d="M141.999 52C143.592 49.808 145.581 48.0453 147.827 46.836C150.073 45.6267 152.521 45 154.999 45C157.477 45 159.925 45.6267 162.171 46.836C164.417 48.0453 166.406 49.808 167.999 52" stroke="#FF6CD3" stroke-width="3" stroke-linecap="round" stroke-linejoin="round"/>
</svg>
