<svg width="30" height="30" viewBox="0 0 30 30" fill="none" xmlns="http://www.w3.org/2000/svg">
<path d="M26.26 3.75C26.945 3.75 27.5 4.30625 27.5 4.99125V25.0088C27.4977 25.337 27.3664 25.6512 27.1344 25.8835C26.9023 26.1157 26.5883 26.2474 26.26 26.25H3.74C3.41102 26.2497 3.09562 26.1187 2.86311 25.886C2.6306 25.6533 2.5 25.3377 2.5 25.0088V4.99125C2.50229 4.66297 2.63363 4.34877 2.86564 4.11652C3.09766 3.88427 3.41173 3.75262 3.74 3.75H26.26ZM25 6.25H5V23.75H25V6.25ZM22.5 18.75V21.25H7.5V18.75H22.5ZM15 8.75V16.25H7.5V8.75H15ZM22.5 13.75V16.25H17.5V13.75H22.5ZM12.5 11.25H10V13.75H12.5V11.25ZM22.5 8.75V11.25H17.5V8.75H22.5Z" fill="#00C000"/>
</svg>
