<svg width="22" height="30" viewBox="0 0 22 30" fill="none" xmlns="http://www.w3.org/2000/svg">
<path d="M10.5599 0C6.62973 0 3.43457 3.19516 3.43457 7.12536C3.43457 10.9805 6.44972 14.1007 10.3799 14.2357C10.4999 14.2207 10.6199 14.2207 10.7099 14.2357H10.8149C12.6591 14.1742 14.407 13.3979 15.6891 12.071C16.9712 10.744 17.6871 8.97051 17.6853 7.12536C17.6853 3.19516 14.4901 0 10.5599 0Z" fill="#002E66"/>
<path opacity="0.4" d="M18.1809 18.2244C13.9957 15.4343 7.17036 15.4343 2.95515 18.2244C1.05005 19.4995 0 21.2246 0 23.0697C0 24.9147 1.05005 26.6248 2.94015 27.8849C5.04025 29.295 7.80039 30 10.5605 30C13.3207 30 16.0808 29.295 18.1809 27.8849C20.071 26.6098 21.1211 24.8997 21.1211 23.0396C21.1061 21.1946 20.071 19.4845 18.1809 18.2244Z" fill="#06FF00"/>
<path d="M13.5609 21.9446H11.6858V20.0695C11.6858 19.4545 11.1758 18.9445 10.5608 18.9445C9.94572 18.9445 9.4357 19.4545 9.4357 20.0695V21.9446H7.5606C6.94557 21.9446 6.43555 22.4546 6.43555 23.0697C6.43555 23.6847 6.94557 24.1947 7.5606 24.1947H9.4357V26.0698C9.4357 26.6848 9.94572 27.1949 10.5608 27.1949C11.1758 27.1949 11.6858 26.6848 11.6858 26.0698V24.1947H13.5609C14.1759 24.1947 14.686 23.6847 14.686 23.0697C14.686 22.4546 14.1759 21.9446 13.5609 21.9446Z" fill="#002E66"/>
</svg>
