<svg width="30" height="30" viewBox="0 0 30 30" fill="none" xmlns="http://www.w3.org/2000/svg">
<path fill-rule="evenodd" clip-rule="evenodd" d="M19.4001 25.4571L25.3244 19.5328C26.3522 18.505 27.537 18.0339 29.0216 19.5186C30.5205 21.0175 30.0352 22.2166 29.0216 23.2301L28.1784 24.0734L24.4814 20.3765C24.7307 21.2611 25.2029 22.0669 25.8527 22.7168C26.497 23.361 27.2946 23.8307 28.1702 24.0816L23.0974 29.1544C22.869 29.3828 22.4265 29.6112 22.1124 29.654L19.8427 29.9823C19.029 30.1108 18.458 29.5255 18.5722 28.7118L18.9005 26.4421C18.9576 26.128 19.1717 25.6855 19.4001 25.4571Z" fill="#002E66"/>
<path opacity="0.4" d="M1.48463 19.4729C1.48463 19.5157 1.45608 19.5728 1.45608 19.6156C2.76919 22.2492 4.90379 24.3838 7.53733 25.6969C7.58016 25.6969 7.63726 25.6683 7.68009 25.6683C7.19473 24.0124 6.82357 22.3136 6.55234 20.6149C4.83931 20.3294 3.14056 19.9582 1.48463 19.4729ZM25.8097 7.77002C24.4715 4.96157 22.2085 2.69855 19.4001 1.36043C19.914 3.05919 20.3422 4.80077 20.6277 6.54235C22.3693 6.82785 24.1109 7.24184 25.8097 7.77002ZM1.34187 7.76859C3.0549 7.25468 4.79648 6.82643 6.53806 6.54092C6.82357 4.84216 7.18045 3.15769 7.66581 1.50176C7.62298 1.50176 7.56588 1.47321 7.52306 1.47321C4.83931 2.8008 2.6552 5.04202 1.34187 7.76859ZM18.3151 6.23828C17.9725 4.3825 17.5443 2.52672 16.9304 0.728038C16.9019 0.628111 16.9019 0.54246 16.8876 0.428258C15.8047 0.154188 14.6928 0.0104175 13.5758 0C12.4195 0 11.3203 0.157028 10.2496 0.428258C10.2354 0.528184 10.2496 0.613836 10.2211 0.728038C9.62152 2.52672 9.17899 4.3825 8.83638 6.23828C11.9912 5.89568 15.1603 5.89568 18.3151 6.23828ZM6.23828 8.83924C4.36823 9.18184 2.52672 9.6101 0.728038 10.2239C0.628111 10.2525 0.542459 10.2525 0.428257 10.2668C0.171303 11.3231 0 12.4366 0 13.5786C0 14.7349 0.157028 15.8341 0.428257 16.9048C0.528184 16.919 0.613836 16.9048 0.728038 16.9333C2.52672 17.5329 4.36823 17.9754 6.23828 18.318C5.89568 15.1632 5.89568 11.9941 6.23828 8.83924ZM26.709 10.2668C26.6091 10.2668 26.5234 10.2525 26.4092 10.2239C24.6105 9.62437 22.7548 9.18184 20.899 8.83924C21.2558 11.9941 21.2558 15.1632 20.899 18.3037C22.7548 17.9611 24.6105 17.5329 26.4092 16.919C26.5091 16.8905 26.5948 16.9048 26.709 16.8905C26.966 15.8198 27.1373 14.7206 27.1373 13.5643C27.1373 12.4366 26.9802 11.3374 26.709 10.2668ZM8.83638 20.9161C9.17899 22.7862 9.60724 24.6277 10.2211 26.4263C10.2496 26.5263 10.2354 26.6119 10.2496 26.7261C11.3203 26.9831 12.4195 27.1544 13.5758 27.1544C14.7178 27.1544 15.8313 26.9974 16.8876 26.7261C16.9019 26.6262 16.9019 26.5405 16.9304 26.4263C17.53 24.6277 17.9725 22.7862 18.3151 20.9161C16.7449 21.0874 15.1603 21.2159 13.5758 21.2159C11.992 21.1947 10.4102 21.0946 8.83638 20.9161ZM8.50805 8.51376C8.07979 11.8827 8.07979 15.2802 8.50805 18.6635C11.877 19.0917 15.2745 19.0917 18.6578 18.6635C19.086 15.2945 19.086 11.897 18.6578 8.51376C15.2745 8.0855 11.877 8.0855 8.50805 8.51376Z" fill="#06FF00"/>
</svg>
