<svg width="22" height="22" viewBox="0 0 22 22" fill="none" xmlns="http://www.w3.org/2000/svg">
<path d="M20.9402 8.97607V11.9671C20.9402 15.9551 18.9462 17.9492 14.9581 17.9492H14.4596C14.1505 17.9492 13.8514 18.0987 13.662 18.348L12.1665 20.342C11.5085 21.2193 10.4317 21.2193 9.77368 20.342L8.27817 18.348C8.11864 18.1286 7.74975 17.9492 7.48056 17.9492H6.98205C2.99402 17.9492 1 16.9521 1 11.9671V6.98205C1 2.99402 2.99402 1 6.98205 1H12.9641" stroke="white" stroke-miterlimit="10" stroke-linecap="round" stroke-linejoin="round"/>
<path d="M18.4476 5.98504C19.1087 5.98504 19.7426 5.72244 20.2101 5.255C20.6775 4.78756 20.9401 4.15358 20.9401 3.49252C20.9401 2.83146 20.6775 2.19748 20.2101 1.73004C19.7426 1.2626 19.1087 1 18.4476 1C17.7865 1 17.1526 1.2626 16.6851 1.73004C16.2177 2.19748 15.9551 2.83146 15.9551 3.49252C15.9551 4.15358 16.2177 4.78756 16.6851 5.255C17.1526 5.72244 17.7865 5.98504 18.4476 5.98504Z" stroke="white" stroke-linecap="round" stroke-linejoin="round"/>
<path d="M14.9541 9.97308H14.9641M10.9651 9.97308H10.9751M6.97705 9.97308H6.98503" stroke="white" stroke-linecap="round" stroke-linejoin="round"/>
</svg>
