<svg width="350" height="148" viewBox="0 0 350 148" fill="none" xmlns="http://www.w3.org/2000/svg">
<path d="M0.884766 15.0576C0.884766 6.77335 7.60049 0.0576172 15.8848 0.0576172H334.115C342.399 0.0576172 349.115 6.77335 349.115 15.0576V132.597C349.115 140.882 342.399 147.597 334.115 147.597H15.8847C7.60048 147.597 0.884766 140.882 0.884766 132.597V15.0576Z" fill="#FFC173"/>
<mask id="mask0_7_5354" style="mask-type:alpha" maskUnits="userSpaceOnUse" x="0" y="0" width="350" height="148">
<rect x="0.884766" y="0.0576172" width="348.23" height="147.54" rx="15" fill="#FFC173"/>
</mask>
<g mask="url(#mask0_7_5354)">
<path d="M38.001 47.7702L38.001 100.232C38.001 102.866 40.1276 105.001 42.751 105.001L71.251 105.001C73.8743 105.001 76.001 102.866 76.001 100.232L76.001 47.7702C76.001 45.1362 73.8743 43.001 71.251 43.001L42.751 43.001C40.1276 43.001 38.001 45.1362 38.001 47.7702Z" stroke="#625FFB" stroke-width="4" stroke-linecap="round" stroke-linejoin="round"/>
<path d="M66.001 95.001L47.001 95.001" stroke="#625FFB" stroke-width="4" stroke-linecap="round" stroke-linejoin="round"/>
<path d="M141.032 -53.7195L185.362 111.722C187.587 120.028 196.125 124.957 204.432 122.732L294.672 98.5519C302.979 96.3262 307.908 87.7882 305.682 79.4818L261.353 -85.9594C259.127 -94.2658 250.589 -99.1952 242.283 -96.9695L152.042 -72.7896C143.736 -70.5639 138.806 -62.0259 141.032 -53.7195Z" stroke="#EFA346" stroke-width="17" stroke-linecap="round" stroke-linejoin="round"/>
<path d="M271.571 72.502L211.411 88.6219" stroke="#EFA346" stroke-width="17" stroke-linecap="round" stroke-linejoin="round"/>
</g>
</svg>
