<svg width="349" height="148" viewBox="0 0 349 148" fill="none" xmlns="http://www.w3.org/2000/svg">
<rect y="0.326172" width="348" height="147" rx="15" fill="#002E66"/>
<mask id="mask0_7_5391" style="mask-type:alpha" maskUnits="userSpaceOnUse" x="-1" y="0" width="350" height="148">
<rect x="-0.115234" y="0.0576172" width="348.23" height="147.54" rx="15" fill="#FFF3E0"/>
</mask>
<g mask="url(#mask0_7_5391)">
<path d="M191.562 -24.3969C208.703 -25.9975 225.492 -31.3899 240.605 -40.1487C247.964 -44.3892 256.108 -47.0503 264.438 -47.9362C272.767 -48.822 281.071 -47.9099 288.737 -45.2672M270.049 7.80192C244.181 22.7809 215.038 31.1176 185.378 32.0229M253.354 -17.7922C260.044 -21.6543 267.986 -22.7133 275.434 -20.7364C282.882 -18.7594 289.226 -13.9084 293.07 -7.25041C296.914 -0.592462 297.943 7.32701 295.931 14.7658C293.919 22.2046 289.031 28.5534 282.342 32.4155C256.372 47.4783 227.391 56.5999 197.5 59.1189M265.426 103.538C281.466 97.9842 296.947 90.9175 311.656 82.435C331.574 70.935 346.146 52.0569 352.164 29.9539C358.182 7.85079 355.155 -15.6668 343.747 -35.4252C332.339 -55.1836 313.487 -69.5644 291.336 -75.4039C269.185 -81.2435 245.55 -78.0635 225.631 -66.5634C217.114 -61.616 207.81 -58.1699 198.133 -56.378M226.84 -6.00986C212.389 -1.02851 197.326 1.72142 182.216 2.13679M314.179 -24.7218C315.55 -22.915 316.811 -21.0287 317.955 -19.0721C325.148 -6.61264 326.85 8.33694 322.686 22.4879C318.522 36.6389 308.833 48.8322 295.751 56.3853C287.502 61.1388 278.982 65.404 270.239 69.1567M244.251 79.0702C238.457 81.3792 232.603 83.5846 226.87 85.5817" stroke="#FFFF00" stroke-width="14" stroke-linecap="round" stroke-linejoin="round"/>
</g>
<g clip-path="url(#clip0_7_5391)">
<path d="M41.3727 105.726C38.7615 104.257 36.6648 102.168 35.0825 99.4594C33.5002 96.7503 32.7083 93.7639 32.707 90.5C32.707 87.2361 33.5152 84.2412 35.1314 81.5152C36.7477 78.7892 38.9424 76.6435 41.7154 75.0781C42.3681 74.7191 42.9883 74.7517 43.5758 75.176C44.1633 75.6003 44.457 76.1878 44.457 76.9385C44.457 77.2649 44.3591 77.6076 44.1633 77.9667C43.9674 78.3257 43.7063 78.5868 43.3799 78.75C41.2911 79.9903 39.6428 81.647 38.4352 83.7203C37.2275 85.7935 36.6237 88.0534 36.6237 90.5C36.6237 92.9479 37.2275 95.2085 38.4352 97.2817C39.6428 99.3549 41.2911 101.011 43.3799 102.25C43.7063 102.413 43.9674 102.674 44.1633 103.033C44.3591 103.392 44.457 103.751 44.457 104.11C44.457 104.861 44.147 105.432 43.5268 105.824C42.9067 106.216 42.1886 106.183 41.3727 105.726ZM62.082 108.125C59.6341 108.125 57.3409 107.66 55.2024 106.731C53.0639 105.801 51.2035 104.545 49.6212 102.961C48.0388 101.377 46.7829 99.5168 45.8533 97.3796C44.9238 95.2424 44.4583 92.9492 44.457 90.5C44.457 88.0521 44.9225 85.7589 45.8533 83.6204C46.7842 81.4819 48.0408 79.6215 49.6231 78.0391C51.2054 76.4568 53.0659 75.2008 55.2044 74.2713C57.3429 73.3417 59.6354 72.8763 62.082 72.875C64.5299 72.875 66.8232 73.3404 68.9617 74.2713C71.1002 75.2022 72.9606 76.4581 74.5429 78.0391C76.1252 79.6228 77.3818 81.4832 78.3127 83.6204C79.2436 85.7576 79.7083 88.0508 79.707 90.5C79.707 92.9479 79.2416 95.2411 78.3107 97.3796C77.3799 99.5181 76.1239 101.379 74.5429 102.961C72.9593 104.543 71.0989 105.8 68.9617 106.731C66.8245 107.662 64.5313 108.126 62.082 108.125ZM62.082 104.208C65.9008 104.208 69.1405 102.879 71.8012 100.219C74.462 97.5598 75.7917 94.3201 75.7904 90.5C75.7904 86.6813 74.46 83.4415 71.7993 80.7808C69.1386 78.1201 65.8995 76.7904 62.082 76.7917C58.2633 76.7917 55.0235 78.122 52.3628 80.7828C49.7021 83.4435 48.3724 86.6826 48.3737 90.5C48.3737 94.3188 49.7041 97.5585 52.3648 100.219C55.0255 102.88 58.2646 104.21 62.082 104.208ZM62.082 98.3333C62.6369 98.3333 63.1023 98.146 63.4783 97.7713C63.8543 97.3966 64.0417 96.9312 64.0404 96.375V92.4583H67.957C68.5119 92.4583 68.9773 92.2703 69.3533 91.8943C69.7293 91.5183 69.9167 91.0536 69.9154 90.5C69.9154 89.9451 69.7274 89.4797 69.3514 89.1037C68.9754 88.7277 68.5106 88.5404 67.957 88.5417H64.0404V84.625C64.0404 84.0701 63.8524 83.6047 63.4764 83.2287C63.1004 82.8527 62.6356 82.6654 62.082 82.6667C61.5272 82.6667 61.0617 82.8547 60.6857 83.2307C60.3097 83.6067 60.1224 84.0714 60.1237 84.625V88.5417H56.207C55.6522 88.5417 55.1867 88.7297 54.8107 89.1057C54.4347 89.4817 54.2474 89.9464 54.2487 90.5C54.2487 91.0549 54.4367 91.5203 54.8127 91.8963C55.1887 92.2723 55.6535 92.4596 56.207 92.4583H60.1237V96.375C60.1237 96.9299 60.3117 97.3953 60.6877 97.7713C61.0637 98.1473 61.5285 98.3346 62.082 98.3333Z" fill="white"/>
</g>
<defs>
<clipPath id="clip0_7_5391">
<rect width="47" height="47" fill="white" transform="translate(32.707 67)"/>
</clipPath>
</defs>
</svg>
