<svg width="368" height="186" viewBox="0 0 368 186" fill="none" xmlns="http://www.w3.org/2000/svg">
<rect y="15.3252" width="348" height="147" rx="15" fill="#FF6CD3"/>
<mask id="mask0_7_5404" style="mask-type:alpha" maskUnits="userSpaceOnUse" x="-1" y="15" width="350" height="148">
<rect x="-0.115234" y="15.0566" width="348.23" height="147.54" rx="15" fill="#FFF3E0"/>
</mask>
<g mask="url(#mask0_7_5404)">
</g>
<g clip-path="url(#clip0_7_5404)">
<path d="M239.356 96.711C235.959 99.9434 230.41 99.6152 226.948 95.977C225.287 94.2315 224.342 91.9415 224.32 89.6106C224.298 87.2798 225.202 85.0991 226.832 83.5483C230.229 80.3159 235.778 80.6441 239.239 84.2823C240.9 86.0278 241.845 88.3178 241.867 90.6487C241.889 92.9795 240.986 95.1602 239.356 96.711ZM215.591 71.7345C206.048 80.8143 206.193 96.2537 215.917 106.473C229.024 120.249 265.61 124.304 265.61 124.304C265.61 124.304 263.378 87.5619 250.271 73.786C240.547 63.5665 225.134 62.6547 215.591 71.7345ZM281.344 56.76C279.714 58.3108 277.491 59.1047 275.164 58.9671C272.837 58.8294 270.597 57.7715 268.936 56.026C268.114 55.1617 267.459 54.1547 267.008 53.0623C266.557 51.97 266.319 50.8137 266.308 49.6596C266.298 48.5055 266.514 47.3761 266.945 46.3359C267.376 45.2957 268.013 44.3651 268.82 43.5972C269.627 42.8294 270.588 42.2392 271.648 41.8605C272.709 41.4818 273.847 41.322 274.999 41.3902C276.152 41.4583 277.295 41.7531 278.363 42.2578C279.432 42.7624 280.405 43.467 281.227 44.3312C282.888 46.0767 283.834 48.3668 283.855 50.6976C283.877 53.0285 282.974 55.2092 281.344 56.76ZM257.579 31.7835C248.036 40.8633 248.181 56.3027 257.905 66.5222C271.012 80.2981 307.598 84.3527 307.598 84.3527C307.598 84.3527 305.366 47.6109 292.259 33.835C282.535 23.6155 267.122 22.7037 257.579 31.7835ZM312.032 89.0128C307.184 93.6253 305.982 101 309.047 107.43L288.587 126.897C284.664 124.8 280.178 124.296 276.111 125.494C272.043 126.692 268.727 129.496 266.888 133.291C265.974 135.177 265.452 137.251 265.353 139.395C265.255 141.538 265.58 143.71 266.311 145.784C267.042 147.859 268.165 149.796 269.615 151.486C271.065 153.175 272.813 154.583 274.761 155.63C278.705 157.722 283.208 158.216 287.288 157.004C291.368 155.793 294.693 152.974 296.536 149.164C298.614 144.85 298.45 139.71 296.366 135.073L316.864 115.57C325.031 119.949 334.786 117.054 338.525 109.213C339.448 107.328 339.978 105.253 340.084 103.107C340.19 100.96 339.869 98.7849 339.141 96.7057C338.413 94.6265 337.292 92.6843 335.841 90.9908C334.391 89.2973 332.64 87.8858 330.69 86.8374C324.381 83.4938 316.918 84.3639 312.032 89.0128ZM329.535 107.408C328.016 108.853 325.945 109.592 323.777 109.464C321.609 109.336 319.522 108.35 317.975 106.724C316.427 105.098 315.547 102.964 315.526 100.793C315.506 98.621 316.348 96.5893 317.866 95.1445C319.385 93.6996 321.456 92.9599 323.624 93.0882C325.791 93.2164 327.879 94.2021 329.426 95.8283C330.973 97.4545 331.854 99.5881 331.874 101.76C331.895 103.931 331.053 105.963 329.535 107.408Z" fill="black" fill-opacity="0.05"/>
</g>
<path d="M58 114.5C59.375 114.5 60.5525 113.969 61.5325 112.908C62.5125 111.846 63.0017 110.571 63 109.084C63 107.594 62.51 106.318 61.53 105.257C60.55 104.195 59.3733 103.665 58 103.667C56.625 103.667 55.4475 104.198 54.4675 105.259C53.4875 106.321 52.9983 107.596 53 109.084C53 110.573 53.49 111.849 54.47 112.911C55.45 113.972 56.6267 114.502 58 114.5ZM58 141.584C51.2917 135.4 46.2817 129.656 42.97 124.353C39.6583 119.05 38.0017 114.141 38 109.625C38 102.854 40.0108 97.4604 44.0325 93.443C48.0542 89.4257 52.71 87.417 58 87.417C63.2917 87.417 67.9483 89.4257 71.97 93.443C75.9917 97.4604 78.0017 102.854 78 109.625C78 114.139 76.3433 119.049 73.03 124.353C69.7167 129.658 64.7067 135.401 58 141.584Z" fill="white"/>
<defs>
<clipPath id="clip0_7_5404">
<rect width="126.453" height="135.421" fill="white" transform="translate(183 87.166) rotate(-43.5758)"/>
</clipPath>
</defs>
</svg>
