<svg width="22" height="30" viewBox="0 0 22 30" fill="none" xmlns="http://www.w3.org/2000/svg">
<path d="M12.767 9.95757L14.6825 13.7885C14.9437 14.3109 15.6402 14.8333 16.2207 14.9204L19.6889 15.5009C21.9091 15.8782 22.4315 17.4744 20.8353 19.0706L18.1362 21.7697C17.6863 22.2196 17.4251 23.1047 17.5702 23.7432L18.3393 27.0953C18.9488 29.7364 17.5412 30.7667 15.2049 29.3881L11.9544 27.4581C11.3594 27.1098 10.4017 27.1098 9.80672 27.4581L6.5562 29.3881C4.2199 30.7667 2.81231 29.7364 3.42178 27.0953L4.19087 23.7432C4.33598 23.1193 4.07478 22.2341 3.62493 21.7697L0.925846 19.0706C-0.670389 17.4744 -0.147985 15.8636 2.07223 15.5009L5.54042 14.9204C6.12087 14.8188 6.8174 14.3109 7.07861 13.7885L8.99409 9.95757C10.0244 7.88247 11.7367 7.88247 12.767 9.95757Z" fill="#002E66"/>
<path opacity="0.4" d="M2.17379 12.3345C1.57883 12.3345 1.08545 11.8412 1.08545 11.2462V1.08834C1.08545 0.493382 1.57883 0 2.17379 0C2.76875 0 3.26213 0.493382 3.26213 1.08834V11.2462C3.26213 11.8412 2.76875 12.3345 2.17379 12.3345ZM19.5873 12.3345C18.9923 12.3345 18.4989 11.8412 18.4989 11.2462V1.08834C18.4989 0.493382 18.9923 0 19.5873 0C20.1822 0 20.6756 0.493382 20.6756 1.08834V11.2462C20.6756 11.8412 20.1822 12.3345 19.5873 12.3345ZM10.8805 5.07893C10.2856 5.07893 9.79219 4.58555 9.79219 3.99059V1.08834C9.79219 0.493382 10.2856 0 10.8805 0C11.4755 0 11.9689 0.493382 11.9689 1.08834V3.99059C11.9689 4.58555 11.4755 5.07893 10.8805 5.07893Z" fill="#06FF00"/>
</svg>
