<svg width="30" height="30" viewBox="0 0 30 30" fill="none" xmlns="http://www.w3.org/2000/svg">
<path opacity="0.4" d="M21.285 0H8.715C3.255 0 0 3.255 0 8.715V21.27C0 26.745 3.255 30 8.715 30H21.27C26.73 30 29.985 26.745 29.985 21.285V8.715C30 3.255 26.745 0 21.285 0Z" fill="#06FF00"/>
<path d="M20.8336 9.16501C18.6136 6.96001 15.0136 6.96001 12.8086 9.16501C12.076 9.8961 11.5573 10.8137 11.3088 11.8184C11.0602 12.8231 11.0913 13.8767 11.3986 14.865L7.87358 18.39C7.63358 18.645 7.45358 19.14 7.51358 19.5L7.73858 21.135C7.81358 21.675 8.32358 22.185 8.86358 22.26L10.4986 22.5C10.8586 22.545 11.3536 22.395 11.6086 22.125L12.2236 21.51C12.3736 21.375 12.3736 21.135 12.2236 20.985L10.7686 19.53C10.6674 19.4224 10.6111 19.2802 10.6111 19.1325C10.6111 18.9848 10.6674 18.8427 10.7686 18.735C10.9786 18.525 11.3386 18.525 11.5636 18.735L13.0186 20.19C13.1536 20.325 13.3936 20.325 13.5436 20.19L15.1336 18.615C17.0686 19.215 19.2886 18.75 20.8336 17.22C21.9 16.1509 22.4988 14.7025 22.4988 13.1925C22.4988 11.6825 21.9 10.2341 20.8336 9.16501ZM16.8736 15C16.3763 15 15.8994 14.8025 15.5478 14.4508C15.1961 14.0992 14.9986 13.6223 14.9986 13.125C14.9986 12.6277 15.1961 12.1508 15.5478 11.7992C15.8994 11.4476 16.3763 11.25 16.8736 11.25C17.3709 11.25 17.8478 11.4476 18.1994 11.7992C18.551 12.1508 18.7486 12.6277 18.7486 13.125C18.7486 13.6223 18.551 14.0992 18.1994 14.4508C17.8478 14.8025 17.3709 15 16.8736 15Z" fill="#002E66"/>
</svg>
