<svg width="821" height="342" viewBox="0 0 821 342" fill="none" xmlns="http://www.w3.org/2000/svg">
<path d="M754.811 227.547C754.811 231.288 751.933 234.2 748.529 234.2C745.124 234.2 742.246 231.288 742.246 227.547C742.246 223.806 745.124 220.894 748.529 220.894C751.933 220.894 754.811 223.806 754.811 227.547Z" stroke="#FFD28D" stroke-width="3"/>
<path d="M804.24 198.309C804.85 198.044 805.396 197.647 805.836 197.148C806.276 197.647 806.822 198.044 807.432 198.309C807.091 198.885 806.88 199.532 806.818 200.199C806.172 200.056 805.5 200.056 804.854 200.199C804.792 199.532 804.581 198.885 804.24 198.309Z" stroke="#FFB0B0" stroke-opacity="0.5" stroke-width="3"/>
<rect x="2.04719" y="0.548542" width="13.2384" height="13.2553" rx="5.5" transform="matrix(0.865574 -0.50078 0.49922 0.866475 762.388 153.067)" stroke="#ADABFF" stroke-opacity="0.5" stroke-width="3"/>
<path d="M422.994 155.637C422.994 159.378 420.116 162.29 416.711 162.29C413.306 162.29 410.429 159.378 410.429 155.637C410.429 151.896 413.306 148.983 416.711 148.983C420.116 148.983 422.994 151.896 422.994 155.637Z" stroke="#FFD28D" stroke-width="3"/>
<path d="M472.423 126.399C473.032 126.135 473.579 125.738 474.019 125.239C474.458 125.738 475.005 126.135 475.615 126.399C475.273 126.976 475.063 127.623 475.001 128.29C474.355 128.147 473.683 128.147 473.036 128.29C472.974 127.623 472.764 126.976 472.423 126.399Z" stroke="#FFB0B0" stroke-opacity="0.5" stroke-width="3"/>
<rect x="2.04719" y="0.548542" width="13.2384" height="13.2553" rx="5.5" transform="matrix(0.865574 -0.50078 0.49922 0.866475 430.57 81.158)" stroke="#ADABFF" stroke-opacity="0.5" stroke-width="3"/>
<path d="M14.7671 332.88C14.7671 336.621 11.8893 339.533 8.48463 339.533C5.07992 339.533 2.20215 336.621 2.20215 332.88C2.20215 329.139 5.07992 326.227 8.48463 326.227C11.8893 326.227 14.7671 329.139 14.7671 332.88Z" stroke="#FFD28D" stroke-width="3"/>
<path d="M64.1961 303.642C64.8059 303.377 65.3522 302.98 65.792 302.481C66.2319 302.98 66.7782 303.377 67.388 303.642C67.0466 304.218 66.8365 304.865 66.7741 305.532C66.1281 305.389 65.456 305.389 64.8099 305.532C64.7476 304.865 64.5374 304.218 64.1961 303.642Z" stroke="#FFB0B0" stroke-opacity="0.5" stroke-width="3"/>
<rect x="2.04719" y="0.548542" width="13.2384" height="13.2553" rx="5.5" transform="matrix(0.865574 -0.50078 0.49922 0.866475 22.3431 258.4)" stroke="#ADABFF" stroke-opacity="0.5" stroke-width="3"/>
<path d="M91.1773 83.7274C91.1773 87.4684 88.2995 90.3806 84.8948 90.3806C81.4901 90.3806 78.6123 87.4684 78.6123 83.7274C78.6123 79.9864 81.4901 77.0742 84.8948 77.0742C88.2995 77.0742 91.1773 79.9864 91.1773 83.7274Z" stroke="#FFD28D" stroke-width="3"/>
<path d="M140.606 54.4892C141.216 54.2245 141.762 53.8274 142.202 53.3289C142.642 53.8274 143.188 54.2245 143.798 54.4892C143.457 55.0656 143.247 55.7129 143.184 56.3798C142.538 56.2367 141.866 56.2367 141.22 56.3798C141.158 55.7129 140.948 55.0656 140.606 54.4892Z" stroke="#FFB0B0" stroke-opacity="0.5" stroke-width="3"/>
<rect x="2.04719" y="0.548542" width="13.2384" height="13.2553" rx="5.5" transform="matrix(0.865574 -0.50078 0.49922 0.866475 98.7533 9.24785)" stroke="#ADABFF" stroke-opacity="0.5" stroke-width="3"/>
</svg>
