<svg width="16" height="16" viewBox="0 0 16 16" fill="none" xmlns="http://www.w3.org/2000/svg">
<path d="M9.36945 1.20194L10.7795 4.02194C10.9695 4.41194 11.4795 4.78194 11.9095 4.86194L14.4595 5.28194C16.0895 5.55194 16.4695 6.73194 15.2995 7.91194L13.3095 9.90194C12.9795 10.2319 12.7895 10.8819 12.8995 11.3519L13.4695 13.8119C13.9195 15.7519 12.8795 16.5119 11.1695 15.4919L8.77945 14.0719C8.34945 13.8119 7.62945 13.8119 7.19945 14.0719L4.80945 15.4919C3.09945 16.5019 2.05945 15.7519 2.50945 13.8119L3.07945 11.3519C3.18945 10.8919 2.99945 10.2419 2.66945 9.90194L0.679454 7.91194C-0.490546 6.74194 -0.110546 5.56194 1.51945 5.28194L4.06945 4.86194C4.49945 4.79194 5.00945 4.41194 5.19945 4.02194L6.60945 1.20194C7.35945 -0.328057 8.59945 -0.328057 9.36945 1.20194Z" fill="#FF9100"/>
</svg>
