<svg width="50" height="50" viewBox="0 0 50 50" fill="none" xmlns="http://www.w3.org/2000/svg">
<path d="M50 14.525V35.475C50 42.5 46.775 47.325 41.1 49.15C39.45 49.725 37.55 50 35.475 50H14.525C12.45 50 10.55 49.725 8.9 49.15C3.225 47.325 0 42.5 0 35.475V14.525C0 5.425 5.425 0 14.525 0H35.475C44.575 0 50 5.425 50 14.525Z" fill="#002E66"/>
<path d="M41.0975 49.1475C39.4475 49.7225 37.5475 49.9975 35.4725 49.9975H14.5225C12.4475 49.9975 10.5475 49.7225 8.89746 49.1475C9.77246 42.5475 16.6725 37.4225 24.9975 37.4225C33.3225 37.4225 40.2225 42.5475 41.0975 49.1475ZM33.955 23.95C33.955 28.9 29.955 32.925 25.005 32.925C20.055 32.925 16.055 28.9 16.055 23.95C16.055 19 20.055 15 25.005 15C29.955 15 33.955 19 33.955 23.95Z" fill="#06FF00"/>
</svg>
