<svg width="30" height="30" viewBox="0 0 30 30" fill="none" xmlns="http://www.w3.org/2000/svg">
<path opacity="0.4" d="M15 30C23.2845 30 30 23.2845 30 15C30 6.7155 23.2845 0 15 0C6.7155 0 0 6.7155 0 15C0 23.2845 6.7155 30 15 30Z" fill="#06FF00"/>
<path d="M14.9996 7.39343C11.8946 7.39343 9.37462 9.91343 9.37462 13.0184C9.37462 16.0634 11.7596 18.5384 14.9246 18.6284H15.1946C16.6507 18.5806 18.0311 17.9686 19.0444 16.9218C20.0576 15.875 20.6242 14.4753 20.6246 13.0184C20.6246 9.91343 18.1046 7.39343 14.9996 7.39343ZM25.1681 26.0189C22.3998 28.5776 18.7678 29.9972 14.9981 29.9939C11.0681 29.9939 7.49812 28.4789 4.82812 26.0189C5.18812 24.6539 6.16313 23.4089 7.58812 22.4489C11.6831 19.7189 18.3431 19.7189 22.4081 22.4489C23.8481 23.4089 24.8081 24.6539 25.1681 26.0189Z" fill="#002E66"/>
</svg>
