<svg width="20" height="22" viewBox="0 0 20 22" fill="none" xmlns="http://www.w3.org/2000/svg">
<path d="M18.8236 3.98C17.2136 3.82 15.6036 3.7 13.9836 3.61V3.6L13.7636 2.3C13.6136 1.38 13.3936 0 11.0536 0H8.43358C6.10358 0 5.88357 1.32 5.72358 2.29L5.51358 3.57C4.58358 3.63 3.65358 3.69 2.72358 3.78L0.683576 3.98C0.263576 4.02 -0.0364245 4.39 0.00357552 4.8C0.0435755 5.21 0.403575 5.51 0.823575 5.47L2.86358 5.27C8.10358 4.75 13.3836 4.95 18.6836 5.48H18.7636C19.1436 5.48 19.4736 5.19 19.5136 4.8C19.5286 4.60024 19.4648 4.40253 19.3358 4.24925C19.2069 4.09596 19.023 3.99931 18.8236 3.98ZM16.9836 6.89C16.7436 6.64 16.4136 6.5 16.0736 6.5H3.43358C3.09358 6.5 2.75358 6.64 2.52358 6.89C2.29358 7.14 2.16358 7.48 2.18358 7.83L2.80358 18.09C2.91358 19.61 3.05358 21.51 6.54358 21.51H12.9636C16.4536 21.51 16.5936 19.62 16.7036 18.09L17.3236 7.84C17.3436 7.48 17.2136 7.14 16.9836 6.89ZM11.4136 16.5H8.08358C7.67358 16.5 7.33358 16.16 7.33358 15.75C7.33358 15.34 7.67358 15 8.08358 15H11.4136C11.8236 15 12.1636 15.34 12.1636 15.75C12.1636 16.16 11.8236 16.5 11.4136 16.5ZM12.2536 12.5H7.25358C6.84358 12.5 6.50358 12.16 6.50358 11.75C6.50358 11.34 6.84358 11 7.25358 11H12.2536C12.6636 11 13.0036 11.34 13.0036 11.75C13.0036 12.16 12.6636 12.5 12.2536 12.5Z" fill="#393939"/>
</svg>
