<svg width="32" height="30" viewBox="0 0 32 30" fill="none" xmlns="http://www.w3.org/2000/svg">
<path opacity="0.4" d="M3.25293 28.9157V4.33735C3.25293 1.44578 5.19028 0 7.59028 0H19.1565C21.5565 0 23.4939 1.44578 23.4939 4.33735V28.9157H3.25293Z" fill="#06FF00"/>
<path d="M25.6627 30.0001H1.08434C0.491566 30.0001 0 29.5085 0 28.9157C0 28.3229 0.491566 27.8314 1.08434 27.8314H25.6627C26.2554 27.8314 26.747 28.3229 26.747 28.9157C26.747 29.5085 26.2554 30.0001 25.6627 30.0001ZM9.6 11.5663H17.1614C18.6651 11.5663 19.894 10.8434 19.894 8.83379V7.05547C19.8795 5.06029 18.6506 4.3374 17.147 4.3374H9.58554C8.09639 4.3374 6.86747 5.06029 6.86747 7.06993V8.84825C6.86747 10.8434 8.09639 11.5663 9.6 11.5663ZM11.9277 16.988H7.59036C6.99759 16.988 6.50602 16.4964 6.50602 15.9037C6.50602 15.3109 6.99759 14.8193 7.59036 14.8193H11.9277C12.5205 14.8193 13.012 15.3109 13.012 15.9037C13.012 16.4964 12.5205 16.988 11.9277 16.988ZM31.0843 11.5634V20.2381C31.0843 20.8309 30.6072 21.3225 30 21.3225L23.494 21.3369V19.1682L28.9157 19.1538V12.2285L26.6169 11.0863C26.4888 11.0227 26.3747 10.9342 26.2812 10.826C26.1877 10.7178 26.1166 10.5921 26.0722 10.4562C26.0278 10.3203 26.0109 10.1769 26.0225 10.0343C26.0341 9.89183 26.074 9.75304 26.1398 9.62608C26.4 9.09114 27.0651 8.88873 27.6 9.14897L30.4916 10.5948C30.853 10.7827 31.0843 11.1586 31.0843 11.5634Z" fill="#002E66"/>
</svg>
