<svg width="25" height="22" viewBox="0 0 25 22" fill="none" xmlns="http://www.w3.org/2000/svg">
<path d="M1 20.9895H24.1579M20.7684 21V16.3053M2.15789 20.9895V4.17895C2.15789 2.06316 3.21053 1 5.30526 1H11.8632C13.9579 1 15 2.06316 15 4.17895V20.9895M6.05263 6.51579H11.2632M6.05263 10.4632H11.2632M8.63158 20.9895V17.0421M20.7895 9.29474C19.5053 9.29474 18.4737 10.3263 18.4737 11.6105V14C18.4737 15.2842 19.5053 16.3158 20.7895 16.3158C22.0737 16.3158 23.1053 15.2842 23.1053 14V11.6105C23.1053 10.3263 22.0737 9.29474 20.7895 9.29474Z" stroke="white" stroke-miterlimit="10" stroke-linecap="round" stroke-linejoin="round"/>
</svg>
