<svg width="22" height="22" viewBox="0 0 22 22" fill="none" xmlns="http://www.w3.org/2000/svg">
<path d="M8 21H14C19 21 21 19 21 14V8C21 3 19 1 14 1H8C3 1 1 3 1 8V14C1 19 3 21 8 21Z" stroke="white" stroke-linecap="round" stroke-linejoin="round"/>
<path d="M1 11.7L7 11.68C7.75 11.68 8.59 12.25 8.87 12.95L10.01 15.83C10.27 16.48 10.68 16.48 10.94 15.83L13.23 10.02C13.45 9.45999 13.86 9.43999 14.14 9.96999L15.18 11.94C15.49 12.53 16.29 13.01 16.95 13.01H21.01" stroke="white" stroke-linecap="round" stroke-linejoin="round"/>
</svg>
