<svg width="31" height="30" viewBox="0 0 31 30" fill="none" xmlns="http://www.w3.org/2000/svg">
<path opacity="0.4" d="M30.7257 15V22.5C30.7257 27 27.7257 30 23.2257 30H8.22561C3.72559 30 0.725586 27 0.725586 22.5V15C0.725586 10.9199 3.18559 8.06994 7.0106 7.58994C7.40061 7.52994 7.80561 7.49994 8.22561 7.49994H23.2257C23.6157 7.49994 23.9907 7.51494 24.3507 7.57494C28.2207 8.02494 30.7257 10.8899 30.7257 15Z" fill="#06FF00"/>
<path d="M24.352 7.57496C23.992 7.51496 23.617 7.49996 23.227 7.49996H8.22697C7.80697 7.49996 7.40196 7.52996 7.01196 7.58996C7.22196 7.16996 7.52196 6.77996 7.88197 6.41996L12.757 1.52994C13.747 0.54981 15.0839 0 16.477 0C17.8701 0 19.207 0.54981 20.197 1.52994L22.822 4.18495C23.782 5.12996 24.292 6.32996 24.352 7.57496ZM30.7255 15.75H26.2255C24.5755 15.75 23.2255 17.1 23.2255 18.75C23.2255 20.4 24.5755 21.75 26.2255 21.75H30.7255" fill="#002E66"/>
</svg>
